<svg width="113" height="71" viewBox="0 0 113 71" fill="none" xmlns="http://www.w3.org/2000/svg">
<g clip-path="url(#clip0_2459_3693)">
<path d="M112.378 26.6401H4.89307V26.8423H112.378V26.6401Z" fill="#2F2E41"/>
<path d="M96.1191 65.5042C94.5863 67.3371 96.3432 70.9068 96.3432 70.9068C96.3432 70.9068 100.585 71.5045 102.118 69.6716C103.651 67.8386 101.894 64.2689 101.894 64.2689C101.894 64.2689 97.6519 63.6712 96.1191 65.5042Z" fill="#6C63FF"/>
<path d="M15.8189 24.6685C14.1515 24.6685 12.5216 24.2179 11.1353 23.3736C9.74897 22.5293 8.66845 21.3293 8.03039 19.9253C7.39233 18.5213 7.22538 16.9764 7.55066 15.4859C7.87594 13.9954 8.67884 12.6263 9.85782 11.5518C11.0368 10.4772 12.5389 9.74539 14.1742 9.44891C15.8095 9.15244 17.5046 9.3046 19.045 9.88615C20.5854 10.4677 21.902 11.4525 22.8283 12.7161C23.7546 13.9797 24.2491 15.4652 24.2491 16.9849C24.2465 19.022 23.3575 20.975 21.7771 22.4155C20.1967 23.856 18.0539 24.6662 15.8189 24.6685ZM15.8189 9.50347C14.1954 9.50347 12.6084 9.94225 11.2586 10.7643C9.9087 11.5864 8.85662 12.7548 8.23535 14.1219C7.61408 15.4889 7.45152 16.9932 7.76824 18.4445C8.08497 19.8957 8.86674 21.2288 10.0147 22.2751C11.1627 23.3214 12.6252 24.0339 14.2175 24.3226C15.8098 24.6113 17.4602 24.4631 18.9601 23.8968C20.4599 23.3306 21.7419 22.3717 22.6439 21.1414C23.5458 19.9111 24.0272 18.4646 24.0272 16.9849C24.0248 15.0014 23.1592 13.0998 21.6203 11.6972C20.0815 10.2947 17.9951 9.50572 15.8189 9.50347Z" fill="#2F2E41"/>
<path d="M15.8189 7.73418C12.9442 7.73418 10.6055 5.99942 10.6055 3.86709C10.6055 1.73476 12.9442 0 15.8189 0C18.6936 0 21.0323 1.73476 21.0323 3.86709C21.0323 5.99942 18.6936 7.73418 15.8189 7.73418ZM15.8189 0.164557C13.0665 0.164557 10.8273 1.82551 10.8273 3.86709C10.8273 5.90867 13.0665 7.56963 15.8189 7.56963C18.5713 7.56963 20.8104 5.90867 20.8104 3.86709C20.8104 1.82551 18.5713 0.164557 15.8189 0.164557Z" fill="#2F2E41"/>
<path d="M13.3785 5.96535C12.7565 5.96535 12.2693 5.1216 12.2693 4.04444C12.2693 2.96729 12.7565 2.12354 13.3785 2.12354C14.0005 2.12354 14.4878 2.96729 14.4878 4.04444C14.4878 5.1216 14.0005 5.96535 13.3785 5.96535ZM13.3785 2.32574C12.8975 2.32574 12.4911 3.11282 12.4911 4.04444C12.4911 4.97607 12.8975 5.76315 13.3785 5.76315C13.8596 5.76315 14.2659 4.97607 14.2659 4.04444C14.2659 3.11282 13.8596 2.32574 13.3785 2.32574Z" fill="#2F2E41"/>
<path d="M18.2589 5.96535C17.6369 5.96535 17.1497 5.1216 17.1497 4.04444C17.1497 2.96729 17.6369 2.12354 18.2589 2.12354C18.8809 2.12354 19.3681 2.96729 19.3681 4.04444C19.3681 5.1216 18.8809 5.96535 18.2589 5.96535ZM18.2589 2.32574C17.7778 2.32574 17.3715 3.11282 17.3715 4.04444C17.3715 4.97607 17.7778 5.76315 18.2589 5.76315C18.74 5.76315 19.1463 4.97607 19.1463 4.04444C19.1463 3.11282 18.74 2.32574 18.2589 2.32574Z" fill="#2F2E41"/>
<path d="M26.6891 15.0641C25.8116 15.0641 24.9538 14.8269 24.2241 14.3826C23.4945 13.9382 22.9258 13.3066 22.5899 12.5677C22.2541 11.8287 22.1663 11.0156 22.3375 10.2311C22.5087 9.44668 22.9312 8.72611 23.5518 8.16054C24.1723 7.59498 24.9629 7.20982 25.8235 7.05378C26.6842 6.89774 27.5763 6.97783 28.3871 7.28391C29.1978 7.58999 29.8908 8.10832 30.3783 8.77336C30.8659 9.43839 31.1261 10.2203 31.1261 11.0201C31.1248 12.0923 30.6569 13.1202 29.8251 13.8783C28.9933 14.6364 27.8655 15.0629 26.6891 15.0641ZM26.6891 7.17828C25.8555 7.17828 25.0405 7.4036 24.3474 7.82574C23.6542 8.24788 23.1139 8.84789 22.7949 9.5499C22.4759 10.2519 22.3924 11.0244 22.555 11.7696C22.7177 12.5148 23.1191 13.1994 23.7086 13.7367C24.2981 14.274 25.0492 14.6399 25.8668 14.7881C26.6845 14.9363 27.532 14.8602 28.3022 14.5695C29.0724 14.2787 29.7307 13.7863 30.1939 13.1545C30.657 12.5227 30.9042 11.7799 30.9042 11.0201C30.903 10.0015 30.4585 9.02503 29.6683 8.3048C28.8781 7.58457 27.8067 7.17943 26.6891 7.17828Z" fill="#2F2E41"/>
<path d="M5.05926 15.0641C4.18172 15.0641 3.32388 14.8269 2.59423 14.3826C1.86458 13.9382 1.29588 13.3066 0.960059 12.5677C0.624237 11.8287 0.536371 11.0156 0.707571 10.2311C0.878772 9.44668 1.30135 8.72611 1.92187 8.16054C2.54239 7.59498 3.33297 7.20982 4.19366 7.05378C5.05434 6.89774 5.94646 6.97783 6.75721 7.28391C7.56795 7.58999 8.26091 8.10832 8.74845 8.77336C9.23599 9.43839 9.49621 10.2203 9.49621 11.0201C9.49487 12.0923 9.02698 13.1202 8.19518 13.8783C7.36338 14.6364 6.2356 15.0629 5.05926 15.0641ZM5.05926 7.17828C4.22559 7.17828 3.41065 7.4036 2.71748 7.82574C2.02431 8.24788 1.48405 8.84789 1.16502 9.5499C0.845989 10.2519 0.762515 11.0244 0.925156 11.7696C1.0878 12.5148 1.48925 13.1994 2.07874 13.7367C2.66823 14.274 3.41929 14.6399 4.23694 14.7881C5.05459 14.9363 5.9021 14.8602 6.67231 14.5695C7.44252 14.2787 8.10083 13.7863 8.56399 13.1545C9.02715 12.5227 9.27436 11.7799 9.27436 11.0201C9.27309 10.0015 8.8286 9.02503 8.03839 8.3048C7.24818 7.58457 6.17679 7.17943 5.05926 7.17828Z" fill="#2F2E41"/>
<path d="M15.819 26.6905C14.233 26.6905 12.9905 26.202 12.9905 25.5784C12.9905 24.9548 14.233 24.4663 15.819 24.4663C17.4051 24.4663 18.6476 24.9548 18.6476 25.5784C18.6476 26.202 17.4051 26.6905 15.819 26.6905ZM15.819 24.6685C14.2598 24.6685 13.2123 25.139 13.2123 25.5784C13.2123 26.0178 14.2598 26.4883 15.819 26.4883C17.3782 26.4883 18.4257 26.0178 18.4257 25.5784C18.4257 25.139 17.3782 24.6685 15.819 24.6685Z" fill="#2F2E41"/>
<path d="M53.4221 24.6685C51.7548 24.6685 50.1249 24.2179 48.7386 23.3736C47.3522 22.5293 46.2717 21.3293 45.6337 19.9253C44.9956 18.5213 44.8287 16.9764 45.1539 15.4859C45.4792 13.9954 46.2821 12.6263 47.4611 11.5518C48.6401 10.4772 50.1422 9.74539 51.7775 9.44891C53.4128 9.15244 55.1078 9.3046 56.6482 9.88615C58.1887 10.4677 59.5053 11.4525 60.4316 12.7161C61.3579 13.9797 61.8523 15.4652 61.8523 16.9849C61.8498 19.022 60.9608 20.975 59.3804 22.4155C57.8 23.856 55.6572 24.6662 53.4221 24.6685ZM53.4221 9.50347C51.7987 9.50347 50.2117 9.94225 48.8618 10.7643C47.512 11.5864 46.4599 12.7548 45.8386 14.1219C45.2173 15.4889 45.0548 16.9932 45.3715 18.4445C45.6882 19.8957 46.47 21.2288 47.618 22.2751C48.7659 23.3214 50.2285 24.0339 51.8208 24.3226C53.413 24.6113 55.0635 24.4631 56.5633 23.8968C58.0632 23.3306 59.3452 22.3717 60.2471 21.1414C61.1491 19.9111 61.6305 18.4646 61.6305 16.9849C61.628 15.0014 60.7624 13.0998 59.2236 11.6972C57.6848 10.2947 55.5984 9.50572 53.4221 9.50347Z" fill="#2F2E41"/>
<path d="M53.4219 9.50344C52.3908 9.50344 51.3828 9.22476 50.5255 8.70263C49.6682 8.18051 48.9999 7.43839 48.6053 6.57013C48.2108 5.70186 48.1075 4.74645 48.3087 3.82471C48.5098 2.90296 49.0064 2.05629 49.7355 1.39175C50.4646 0.727209 51.3935 0.274651 52.4048 0.091305C53.4161 -0.0920412 54.4644 0.00205927 55.417 0.361706C56.3696 0.721352 57.1838 1.33039 57.7567 2.11181C58.3296 2.89322 58.6353 3.81192 58.6353 4.75172C58.6338 6.01152 58.084 7.21932 57.1066 8.11013C56.1293 9.00094 54.8041 9.50202 53.4219 9.50344ZM53.4219 0.202203C52.4347 0.202203 51.4696 0.469028 50.6487 0.968935C49.8279 1.46884 49.1881 2.17938 48.8103 3.0107C48.4325 3.84201 48.3337 4.75677 48.5263 5.63929C48.7189 6.52181 49.1943 7.33246 49.8923 7.96872C50.5904 8.60498 51.4798 9.03828 52.4481 9.21383C53.4164 9.38937 54.42 9.29927 55.3321 8.95493C56.2442 8.61059 57.0238 8.02746 57.5722 7.2793C58.1207 6.53114 58.4135 5.65153 58.4135 4.75172C58.412 3.54553 57.8856 2.38913 56.9498 1.53623C56.0141 0.683321 54.7453 0.203562 53.4219 0.202203Z" fill="#2F2E41"/>
<path d="M50.9813 5.96535C50.3593 5.96535 49.8721 5.1216 49.8721 4.04444C49.8721 2.96729 50.3593 2.12354 50.9813 2.12354C51.6033 2.12354 52.0905 2.96729 52.0905 4.04444C52.0905 5.1216 51.6033 5.96535 50.9813 5.96535ZM50.9813 2.32574C50.5002 2.32574 50.0939 3.11282 50.0939 4.04444C50.0939 4.97607 50.5002 5.76315 50.9813 5.76315C51.4624 5.76315 51.8687 4.97607 51.8687 4.04444C51.8687 3.11282 51.4624 2.32574 50.9813 2.32574Z" fill="#2F2E41"/>
<path d="M55.8624 5.96535C55.2404 5.96535 54.7532 5.1216 54.7532 4.04444C54.7532 2.96729 55.2404 2.12354 55.8624 2.12354C56.4844 2.12354 56.9716 2.96729 56.9716 4.04444C56.9716 5.1216 56.4844 5.96535 55.8624 5.96535ZM55.8624 2.32574C55.3813 2.32574 54.975 3.11282 54.975 4.04444C54.975 4.97607 55.3813 5.76315 55.8624 5.76315C56.3435 5.76315 56.7498 4.97607 56.7498 4.04444C56.7498 3.11282 56.3435 2.32574 55.8624 2.32574Z" fill="#2F2E41"/>
<path d="M65.291 25.2755C64.4134 25.2755 63.5556 25.0384 62.8259 24.594C62.0963 24.1496 61.5276 23.518 61.1917 22.7791C60.8559 22.0401 60.7681 21.227 60.9393 20.4426C61.1105 19.6581 61.533 18.9375 62.1536 18.372C62.7741 17.8064 63.5647 17.4212 64.4253 17.2652C65.286 17.1092 66.1781 17.1893 66.9889 17.4953C67.7996 17.8014 68.4926 18.3197 68.9801 18.9848C69.4677 19.6498 69.7279 20.4317 69.7279 21.2315C69.7266 22.3037 69.2587 23.3316 68.4269 24.0897C67.5951 24.8479 66.4673 25.2743 65.291 25.2755ZM65.291 17.3897C64.4573 17.3897 63.6423 17.615 62.9492 18.0372C62.256 18.4593 61.7157 19.0593 61.3967 19.7613C61.0777 20.4633 60.9942 21.2358 61.1568 21.981C61.3195 22.7263 61.7209 23.4108 62.3104 23.9481C62.8999 24.4854 63.651 24.8513 64.4686 24.9995C65.2863 25.1478 66.1338 25.0717 66.904 24.7809C67.6742 24.4901 68.3325 23.9977 68.7957 23.3659C69.2588 22.7341 69.5061 21.9914 69.5061 21.2315C69.5048 20.213 69.0603 19.2365 68.2701 18.5162C67.4799 17.796 66.4085 17.3909 65.291 17.3897Z" fill="#2F2E41"/>
<path d="M40.749 20.5237C39.8703 20.5287 39.0097 20.2958 38.2764 19.8545C37.5431 19.4132 36.9701 18.7833 36.63 18.0448C36.2899 17.3063 36.198 16.4924 36.3661 15.7062C36.5341 14.9201 36.9545 14.1971 37.5739 13.629C38.1934 13.0609 38.9839 12.6732 39.8454 12.5151C40.7068 12.357 41.6004 12.4356 42.4128 12.741C43.2252 13.0463 43.9198 13.5646 44.4085 14.2302C44.8973 14.8958 45.1583 15.6787 45.1583 16.4796C45.1606 17.5485 44.6977 18.5745 43.8711 19.3326C43.0445 20.0907 41.9217 20.5191 40.749 20.5237ZM40.749 12.6378C39.9142 12.6331 39.0967 12.8543 38.4 13.2736C37.7034 13.6928 37.159 14.2912 36.8359 14.9927C36.5128 15.6943 36.4256 16.4676 36.5852 17.2144C36.7449 17.9612 37.1442 18.648 37.7327 19.1877C38.3211 19.7275 39.0722 20.0957 39.8905 20.2459C40.7089 20.3961 41.5578 20.3215 42.3296 20.0314C43.1013 19.7413 43.7612 19.2489 44.2256 18.6166C44.6899 17.9843 44.9378 17.2405 44.9378 16.4796C44.94 15.4643 44.5002 14.4896 43.715 13.7693C42.9297 13.0491 41.8631 12.6422 40.749 12.6378Z" fill="#2F2E41"/>
<path d="M53.4221 26.6905C51.836 26.6905 50.5935 26.202 50.5935 25.5784C50.5935 24.9548 51.836 24.4663 53.4221 24.4663C55.0081 24.4663 56.2506 24.9548 56.2506 25.5784C56.2506 26.202 55.0081 26.6905 53.4221 26.6905ZM53.4221 24.6685C51.8628 24.6685 50.8154 25.139 50.8154 25.5784C50.8154 26.0178 51.8628 26.4883 53.4221 26.4883C54.9813 26.4883 56.0288 26.0178 56.0288 25.5784C56.0288 25.139 54.9813 24.6685 53.4221 24.6685Z" fill="#2F2E41"/>
<path d="M92.2451 24.9718C90.5778 24.9718 88.9479 24.5211 87.5616 23.6768C86.1752 22.8325 85.0947 21.6325 84.4567 20.2285C83.8186 18.8245 83.6516 17.2796 83.9769 15.7891C84.3022 14.2986 85.1051 12.9296 86.2841 11.855C87.4631 10.7804 88.9652 10.0486 90.6005 9.75213C92.2358 9.45566 93.9308 9.60782 95.4712 10.1894C97.0117 10.7709 98.3283 11.7558 99.2546 13.0193C100.181 14.2829 100.675 15.7685 100.675 17.2881C100.673 19.3252 99.7838 21.2783 98.2034 22.7187C96.623 24.1592 94.4802 24.9695 92.2451 24.9718ZM92.2451 9.8067C90.6217 9.8067 89.0347 10.2455 87.6848 11.0675C86.335 11.8896 85.2829 13.0581 84.6616 14.4251C84.0403 15.7922 83.8778 17.2964 84.1945 18.7477C84.5112 20.1989 85.293 21.532 86.441 22.5783C87.5889 23.6246 89.0515 24.3371 90.6438 24.6258C92.236 24.9145 93.8865 24.7663 95.3863 24.2001C96.8862 23.6338 98.1682 22.6749 99.0701 21.4446C99.9721 20.2143 100.453 18.7678 100.453 17.2881C100.451 15.3046 99.5854 13.403 98.0466 12.0004C96.5078 10.5979 94.4214 9.80894 92.2451 9.8067Z" fill="#2F2E41"/>
<path d="M96.6822 10.5142C95.6511 10.5142 94.6431 10.2355 93.7857 9.71338C92.9284 9.19125 92.2602 8.44913 91.8656 7.58087C91.471 6.71261 91.3678 5.75719 91.5689 4.83545C91.7701 3.91371 92.2666 3.06703 92.9957 2.40249C93.7248 1.73795 94.6538 1.28539 95.6651 1.10205C96.6764 0.918701 97.7246 1.0128 98.6773 1.37245C99.6299 1.73209 100.444 2.34113 101.017 3.12255C101.59 3.90397 101.896 4.82266 101.896 5.76246C101.894 7.02226 101.344 8.23006 100.367 9.12087C99.3895 10.0117 98.0644 10.5128 96.6822 10.5142ZM96.6822 1.21295C95.6949 1.21295 94.7299 1.47977 93.909 1.97968C93.0881 2.47959 92.4484 3.19012 92.0706 4.02144C91.6928 4.85276 91.5939 5.76751 91.7865 6.65003C91.9791 7.53255 92.4545 8.3432 93.1526 8.97946C93.8507 9.61572 94.7401 10.049 95.7084 10.2246C96.6766 10.4001 97.6803 10.31 98.5924 9.96567C99.5044 9.62133 100.284 9.03821 100.833 8.29004C101.381 7.54188 101.674 6.66227 101.674 5.76246C101.672 4.55627 101.146 3.39987 100.21 2.54697C99.2743 1.69406 98.0056 1.2143 96.6822 1.21295Z" fill="#2F2E41"/>
<path d="M94.2418 8.79592C93.6198 8.79592 93.1326 7.95216 93.1326 6.87501C93.1326 5.79786 93.6198 4.9541 94.2418 4.9541C94.8638 4.9541 95.3511 5.79786 95.3511 6.87501C95.3511 7.95216 94.8638 8.79592 94.2418 8.79592ZM94.2418 5.1563C93.7607 5.1563 93.3544 5.94339 93.3544 6.87501C93.3544 7.80663 93.7607 8.59372 94.2418 8.59372C94.7229 8.59372 95.1292 7.80663 95.1292 6.87501C95.1292 5.94338 94.7229 5.1563 94.2418 5.1563Z" fill="#2F2E41"/>
<path d="M99.1224 8.79592C98.5004 8.79592 98.0132 7.95216 98.0132 6.87501C98.0132 5.79786 98.5004 4.9541 99.1224 4.9541C99.7444 4.9541 100.232 5.79786 100.232 6.87501C100.232 7.95216 99.7444 8.79592 99.1224 8.79592ZM99.1224 5.1563C98.6414 5.1563 98.235 5.94339 98.235 6.87501C98.235 7.80663 98.6414 8.59372 99.1224 8.59372C99.6035 8.59372 100.01 7.80663 100.01 6.87501C100.01 5.94338 99.6035 5.1563 99.1224 5.1563Z" fill="#2F2E41"/>
<path d="M104.114 25.5788C103.237 25.5788 102.379 25.3416 101.649 24.8972C100.92 24.4529 100.351 23.8213 100.015 23.0823C99.6792 22.3434 99.5913 21.5303 99.7625 20.7458C99.9337 19.9613 100.356 19.2408 100.977 18.6752C101.597 18.1096 102.388 17.7245 103.249 17.5684C104.109 17.4124 105.001 17.4925 105.812 17.7986C106.623 18.1046 107.316 18.623 107.803 19.288C108.291 19.953 108.551 20.7349 108.551 21.5347C108.55 22.6069 108.082 23.6348 107.25 24.393C106.418 25.1511 105.291 25.5775 104.114 25.5788ZM104.114 17.6929C103.281 17.6929 102.466 17.9182 101.772 18.3404C101.079 18.7625 100.539 19.3625 100.22 20.0645C99.9009 20.7665 99.8174 21.539 99.9801 22.2842C100.143 23.0295 100.544 23.714 101.134 24.2513C101.723 24.7886 102.474 25.1545 103.292 25.3027C104.11 25.451 104.957 25.3749 105.727 25.0841C106.497 24.7933 107.156 24.3009 107.619 23.6691C108.082 23.0374 108.329 22.2946 108.329 21.5347C108.328 20.5162 107.884 19.5397 107.093 18.8194C106.303 18.0992 105.232 17.6941 104.114 17.6929Z" fill="#2F2E41"/>
<path d="M79.5998 20.8273C78.7222 20.8273 77.8644 20.5901 77.1347 20.1458C76.4051 19.7014 75.8364 19.0698 75.5006 18.3309C75.1648 17.5919 75.0769 16.7788 75.2481 15.9943C75.4193 15.2099 75.8419 14.4893 76.4624 13.9237C77.0829 13.3582 77.8735 12.973 78.7342 12.817C79.5949 12.6609 80.487 12.741 81.2977 13.0471C82.1085 13.3532 82.8014 13.8715 83.289 14.5365C83.7765 15.2016 84.0367 15.9834 84.0367 16.7833C84.0354 17.8554 83.5675 18.8833 82.7357 19.6415C81.9039 20.3996 80.7761 20.8261 79.5998 20.8273ZM79.5998 12.9415C78.7661 12.9415 77.9512 13.1668 77.258 13.5889C76.5648 14.0111 76.0246 14.6111 75.7055 15.3131C75.3865 16.0151 75.303 16.7875 75.4657 17.5328C75.6283 18.278 76.0298 18.9626 76.6193 19.4999C77.2088 20.0371 77.9598 20.403 78.7775 20.5513C79.5951 20.6995 80.4426 20.6234 81.2128 20.3327C81.983 20.0419 82.6413 19.5495 83.1045 18.9177C83.5677 18.2859 83.8149 17.5431 83.8149 16.7833C83.8136 15.7647 83.3691 14.7882 82.5789 14.068C81.7887 13.3478 80.7173 12.9426 79.5998 12.9415Z" fill="#2F2E41"/>
<path d="M88.862 26.5894C87.2759 26.5894 86.0334 26.101 86.0334 25.4773C86.0334 24.8537 87.2759 24.3652 88.862 24.3652C90.4481 24.3652 91.6906 24.8537 91.6906 25.4773C91.6906 26.101 90.4481 26.5894 88.862 26.5894ZM88.862 24.5674C87.3028 24.5674 86.2553 25.0379 86.2553 25.4773C86.2553 25.9167 87.3028 26.3872 88.862 26.3872C90.4212 26.3872 91.4687 25.9167 91.4687 25.4773C91.4687 25.0379 90.4212 24.5674 88.862 24.5674Z" fill="#2F2E41"/>
<path d="M40.7796 4.75424C37.3088 1.40168 29.6714 2.71387 29.5947 2.72754L29.5522 2.52909C29.6302 2.51522 37.387 1.1828 40.941 4.61542L40.7796 4.75424Z" fill="#6C63FF"/>
<path d="M41.6641 5.66177C41.0943 5.33719 40.3011 4.99502 39.6707 4.88046L40.7392 4.56863L41.3414 3.70605C41.3028 4.29091 41.4643 5.07708 41.6641 5.66177Z" fill="#6C63FF"/>
<path d="M75.6094 10.2142C72.1385 6.86153 64.5012 8.17381 64.4245 8.18748L64.3821 7.98903C64.4601 7.97521 72.2169 6.64274 75.7708 10.0754L75.6094 10.2142Z" fill="#6C63FF"/>
<path d="M76.4942 11.1208C75.9244 10.7962 75.1312 10.454 74.5007 10.3394L75.5693 10.0276L76.1715 9.16504C76.1329 9.74989 76.2944 10.5361 76.4942 11.1208Z" fill="#6C63FF"/>
<path d="M76.2262 19.0815C76.2262 19.0815 73.8772 19.0815 73.6162 20.3899C73.3552 21.6982 72.9638 35.971 73.2247 37.755C73.4857 39.5391 73.4857 39.1823 73.4857 39.1823C73.4857 39.1823 72.9654 42.5727 74.1391 42.7211C75.3127 42.8694 75.3127 38.8255 75.3127 38.8255L76.2261 24.3149L76.2262 19.0815Z" fill="#9E616A"/>
<path d="M86.4045 19.0815C86.4045 19.0815 88.7535 19.0815 89.0145 20.3899C89.2755 21.6982 89.667 35.971 89.406 37.755C89.145 39.5391 89.145 39.1823 89.145 39.1823C89.145 39.1823 89.6653 42.5727 88.4916 42.7211C87.318 42.8694 87.318 38.8255 87.318 38.8255L86.4045 24.3149V19.0815Z" fill="#9E616A"/>
<path d="M75.8345 68.7983H74.7906C74.4821 68.7983 74.1767 68.8537 73.8917 68.9613C73.6067 69.0689 73.3477 69.2266 73.1296 69.4254C72.9115 69.6242 72.7385 69.8602 72.6204 70.1199C72.5024 70.3797 72.4416 70.6581 72.4417 70.9392V70.9392H78.836V68.2036H75.8345V68.7983Z" fill="#2F2E41"/>
<path d="M85.8828 68.7983H86.9267C87.2352 68.7983 87.5406 68.8537 87.8256 68.9613C88.1106 69.0689 88.3696 69.2266 88.5877 69.4254C88.8058 69.6242 88.9788 69.8602 89.0969 70.1199C89.2149 70.3797 89.2757 70.6581 89.2757 70.9392V70.9392H82.8813V68.2036H85.8828V68.7983Z" fill="#2F2E41"/>
<path d="M80.2713 16.346C82.1452 16.346 83.6642 14.9615 83.6642 13.2536C83.6642 11.5457 82.1452 10.1611 80.2713 10.1611C78.3975 10.1611 76.8784 11.5457 76.8784 13.2536C76.8784 14.9615 78.3975 16.346 80.2713 16.346Z" fill="#9E616A"/>
<path d="M79.4884 14.9185C79.4884 14.9185 79.0969 18.8435 78.5749 19.2004C78.0529 19.5572 84.0557 18.9625 84.0557 18.9625C84.0557 18.9625 81.9678 16.1079 82.3593 15.1564C82.7508 14.2049 79.4884 14.9185 79.4884 14.9185Z" fill="#9E616A"/>
<path d="M87.1878 19.082C87.1878 19.082 80.0105 16.3464 75.3126 19.082C75.3126 19.082 74.1382 21.8176 75.0516 23.3639C75.9651 24.9101 77.4006 28.5972 75.9651 31.0949C74.5297 33.5927 76.0956 32.5222 76.0956 32.5222C76.0956 32.5222 74.2687 39.1828 74.0077 44.4162C73.7467 49.6495 74.7906 68.4419 75.5736 68.5609C76.3566 68.6798 78.836 68.9177 79.097 68.5609C79.358 68.2041 81.185 43.3457 81.185 43.3457C81.185 43.3457 81.9679 68.7988 82.7509 68.7988C83.5339 68.7988 85.6218 68.7988 86.0133 68.2041C86.4048 67.6094 89.6672 44.654 88.4927 39.8965C87.3183 35.1389 86.5353 32.7601 86.5353 32.7601C86.5353 32.7601 87.9707 31.9275 87.5793 31.4518C87.1878 30.976 85.2303 25.8616 86.1438 25.029C87.0573 24.1964 87.1878 19.082 87.1878 19.082Z" fill="#2F2E41"/>
<path d="M82.4242 16.385C85.4512 16.385 87.905 14.1484 87.905 11.3895C87.905 8.63059 85.4512 6.39404 82.4242 6.39404C79.3972 6.39404 76.9434 8.63059 76.9434 11.3895C76.9434 14.1484 79.3972 16.385 82.4242 16.385Z" fill="#2F2E41"/>
<path d="M85.847 8.88879C84.9234 8.69096 84.1188 8.17666 83.6001 7.45259C83.0815 6.72852 82.8885 5.85026 83.0614 5C83.0454 5.05115 83.0303 5.10274 83.0168 5.15507C82.7932 6.02379 82.9573 6.9379 83.473 7.69638C83.9887 8.45486 84.8138 8.9956 85.7668 9.19971C86.7199 9.40382 87.7228 9.25457 88.5552 8.78479C89.3875 8.31501 89.9811 7.56316 90.2053 6.69457C90.2188 6.64224 90.2306 6.58994 90.2412 6.53765C89.9805 7.36908 89.3786 8.07712 88.5604 8.51489C87.7422 8.95266 86.7706 9.08655 85.847 8.88879Z" fill="#2F2E41"/>
<path d="M86.0703 9.54005C87.5516 9.54005 88.7524 8.44557 88.7524 7.09547C88.7524 5.74536 87.5516 4.65088 86.0703 4.65088C84.589 4.65088 83.3882 5.74536 83.3882 7.09547C83.3882 8.44557 84.589 9.54005 86.0703 9.54005Z" fill="#2F2E41"/>
<path d="M102.284 70.7197H54.1428V70.9219H102.284V70.7197Z" fill="#2F2E41"/>
</g>
<defs>
<clipPath id="clip0_2459_3693">
<rect width="111.756" height="71" fill="white" transform="translate(0.622314)"/>
</clipPath>
</defs>
</svg>
