<svg width="148" height="78" viewBox="0 0 148 78" fill="none" xmlns="http://www.w3.org/2000/svg">
<path d="M28.1567 39.978C28.1567 54.2991 16.0301 65.9097 1.07251 65.9097V14.0464C16.0301 14.0464 28.1567 25.657 28.1567 39.978Z" fill="#3F3D56"/>
<path d="M119.888 39.978C119.888 54.2991 132.015 65.9097 146.972 65.9097V14.0464C132.015 14.0464 119.888 25.657 119.888 39.978Z" fill="#3F3D56"/>
<path d="M27.3379 10.9301C26.9553 10.9301 26.5813 10.8215 26.2631 10.6179C25.945 10.4144 25.697 10.1251 25.5506 9.78668C25.4042 9.44822 25.3658 9.07579 25.4405 8.71649C25.5151 8.35719 25.6994 8.02714 25.9699 7.7681C26.2405 7.50906 26.5852 7.33265 26.9605 7.26118C27.3358 7.18971 27.7247 7.22639 28.0782 7.36658C28.4317 7.50677 28.7339 7.74418 28.9465 8.04879C29.159 8.35339 29.2725 8.71151 29.2725 9.07785C29.2719 9.56893 29.0679 10.0397 28.7052 10.387C28.3425 10.7342 27.8508 10.9295 27.3379 10.9301ZM27.3379 7.5343C27.0191 7.5343 26.7074 7.62483 26.4422 7.79443C26.1771 7.96404 25.9705 8.20511 25.8485 8.48716C25.7265 8.7692 25.6945 9.07956 25.7567 9.37898C25.8189 9.6784 25.9725 9.95343 26.1979 10.1693C26.4234 10.3852 26.7107 10.5322 27.0234 10.5917C27.3361 10.6513 27.6603 10.6207 27.9549 10.5039C28.2494 10.3871 28.5012 10.1892 28.6784 9.9354C28.8555 9.68156 28.9501 9.38313 28.9501 9.07785C28.9496 8.66861 28.7796 8.27627 28.4773 7.9869C28.1751 7.69752 27.7653 7.53475 27.3379 7.5343Z" fill="#3F3D56"/>
<path d="M113.399 58.9793H110.217V55.9321H113.399V58.9793ZM110.461 58.7449H113.154V56.1665H110.461L110.461 58.7449Z" fill="#3F3D56"/>
<path d="M37.5704 56.213L35.3997 53.9847L37.727 51.9062L39.8978 54.1346L37.5704 56.213ZM35.7457 53.9962L37.5825 55.8817L39.5518 54.123L37.7149 52.2375L35.7457 53.9962Z" fill="#3F3D56"/>
<path d="M110.281 76.9459C106.795 76.4234 103.443 75.9789 100.226 75.6126L101.465 73.24C101.035 73.1028 99.171 74.4753 99.171 74.4753L100.748 67.6126C98.5976 67.8871 97.5941 74.8871 97.5941 74.8871L95.1571 72.5537L96.3567 75.1955C86.511 74.205 78.015 73.8959 70.8732 73.9668L71.9336 71.9361C71.5036 71.7988 69.64 73.1714 69.64 73.1714L71.2169 66.3087C69.0666 66.5832 68.0631 73.5831 68.0631 73.5831L65.626 71.2498L66.8967 74.0479C62.0046 74.184 57.123 74.5603 52.2713 75.1755C53.3294 72.0193 57.0248 68.9851 57.0248 68.9851C54.1834 69.8315 52.7052 71.2103 51.9401 72.4885C51.7853 66.0041 52.8272 59.5444 55.0178 53.4067C55.0178 53.4067 49.2836 65.7596 50.1438 73.9949L50.2529 75.4578C45.2642 76.2029 42.761 76.9459 42.761 76.9459H110.281Z" fill="#3F3D56"/>
<path opacity="0.3" d="M74.9289 60.355C87.305 60.355 97.3379 50.7491 97.3379 38.8997C97.3379 27.0502 87.305 17.4443 74.9289 17.4443C62.5528 17.4443 52.52 27.0502 52.52 38.8997C52.52 50.7491 62.5528 60.355 74.9289 60.355Z" fill="#6C63FF"/>
<path d="M65.7261 11.6045L50.8057 28.9375L72.8879 53.8895L87.6093 37.3184L65.7261 11.6045Z" fill="#6C63FF"/>
<path opacity="0.1" d="M65.7261 11.6045L50.8057 28.9375L72.8879 53.8895L87.6093 37.3184L65.7261 11.6045Z" fill="black"/>
<path d="M51.4028 29.1278C51.7329 28.559 52.1421 28.0358 52.6194 27.5726L66.3233 14.2708C66.3233 14.2708 71.0978 13.5089 72.0925 15.7946L54.5859 29.5087L51.4028 29.1278Z" fill="#F2F2F2"/>
<path d="M50.7063 28.8423L70.9981 58.5562C70.9981 58.5562 72.9874 59.8895 74.9768 59.1276L95.766 45.6992L73.6837 13.6997L53.7899 28.5566L50.7063 28.8423Z" fill="#EB5757"/>
<path d="M71.2029 18.3367L58.4697 27.0972L58.6579 27.3478L71.391 18.5874L71.2029 18.3367Z" fill="#3F3D56"/>
<path d="M58.3012 30.3761L58.0322 30.5464L74.7431 54.7366L75.012 54.5663L58.3012 30.3761Z" fill="#3F3D56"/>
<path d="M90.2974 45.7635L76.7727 55.291L76.9638 55.5397L90.4886 46.0122L90.2974 45.7635Z" fill="#3F3D56"/>
<path d="M73.6173 18.7544L73.3528 18.9307L90.6604 42.7398L90.925 42.5635L73.6173 18.7544Z" fill="#3F3D56"/>
<path d="M68.271 14.0823L52.5291 27.915L52.6635 28.0553L68.4055 14.2225L68.271 14.0823Z" fill="#3F3D56"/>
<path d="M69.5825 14.2006L53.1301 28.1069L53.2618 28.2498L69.7143 14.3434L69.5825 14.2006Z" fill="#3F3D56"/>
<path d="M70.6116 14.478L53.5325 28.1084L53.6599 28.2548L70.739 14.6244L70.6116 14.478Z" fill="#3F3D56"/>
<path d="M141.813 39.9781C140.898 39.6531 139.762 39.0981 139.057 38.5103L139.554 39.8238H130.689V40.1325H139.554L139.057 41.4463C139.762 40.8584 140.898 40.3034 141.813 39.9781Z" fill="white"/>
<path d="M17.5164 39.8236H8.65217L9.14851 38.5098C8.4443 39.0976 7.30822 39.6527 6.39258 39.9779C7.30822 40.3029 8.4443 40.8579 9.14851 41.4458L8.65218 40.1323H17.5164V39.8236Z" fill="white"/>
</svg>
