<svg width="98" height="78" viewBox="0 0 98 78" fill="none" xmlns="http://www.w3.org/2000/svg">
<g clip-path="url(#clip0_2459_3764)">
<path d="M87.1293 72.7156L85.5133 74.14L86.7975 72.0768C85.7857 70.32 84.1309 68.8018 84.1309 68.8018C84.1309 68.8018 80.6978 71.951 80.6978 74.4266C80.6978 76.9021 82.2348 77.7664 84.1309 77.7664C86.027 77.7664 87.564 76.9021 87.564 74.4266C87.5427 73.8338 87.3947 73.2515 87.1293 72.7156Z" fill="#F0F0F0"/>
<path d="M85.0977 74.2172V74.3392C85.0901 75.7576 84.8403 76.8642 84.3501 77.6435C84.3431 77.655 84.3356 77.6658 84.3286 77.6773L84.2737 77.6453L84.2214 77.6139C84.7652 76.7724 84.9576 75.583 84.9646 74.3459C84.9652 74.306 84.9658 74.2655 84.9652 74.225C84.9633 73.7013 84.9299 73.1715 84.8763 72.6569C84.8725 72.617 84.8681 72.5765 84.8636 72.5361C84.7892 71.8571 84.6819 71.2083 84.5721 70.6447C84.5646 70.6048 84.5564 70.565 84.5482 70.5257C84.3583 69.5725 84.1646 68.882 84.1204 68.7292C84.1154 68.7105 84.1122 68.7002 84.1116 68.6978L84.1715 68.6815L84.1721 68.6809L84.2327 68.6646C84.2333 68.667 84.2441 68.7014 84.2617 68.7654C84.3292 69.0046 84.5046 69.654 84.6769 70.5106C84.6844 70.5493 84.6926 70.5891 84.7002 70.629C84.7898 71.0863 84.8775 71.5973 84.9469 72.1337C84.9646 72.2685 84.9803 72.4014 84.9942 72.5324C84.9993 72.5729 85.0037 72.6134 85.0075 72.6532C85.0655 73.2096 85.0956 73.7309 85.0977 74.2172Z" fill="white"/>
<path d="M84.6768 70.5105C84.6346 70.5159 84.5917 70.5214 84.5481 70.5256C84.4299 70.5372 84.3111 70.5431 84.1923 70.5431C83.6858 70.5437 83.1856 70.4356 82.7286 70.2266C82.7021 70.2586 82.6756 70.2906 82.6484 70.3232C83.1292 70.5479 83.6573 70.6644 84.1923 70.6639C84.3192 70.6639 84.4459 70.6574 84.5721 70.6446C84.615 70.6404 84.6579 70.6349 84.7002 70.6289C85.0491 70.581 85.3884 70.4826 85.7065 70.3371C85.6794 70.3039 85.6529 70.2713 85.627 70.2392C85.326 70.374 85.0058 70.4654 84.6768 70.5105Z" fill="white"/>
<path d="M84.9944 72.5322C84.9508 72.5346 84.9073 72.5358 84.8638 72.5358C84.8505 72.5364 84.8366 72.5364 84.8234 72.5364C84.2746 72.5364 83.7339 72.4093 83.2474 72.166C82.761 71.9228 82.3432 71.5704 82.0297 71.1392C82.0044 71.1748 81.9792 71.2104 81.9546 71.2467C82.2814 71.6831 82.712 72.0386 83.2109 72.2839C83.7098 72.5292 84.2626 72.6572 84.8234 72.6572C84.841 72.6572 84.8587 72.6572 84.8764 72.6566C84.9205 72.656 84.9641 72.6548 85.0076 72.653C85.6812 72.6199 86.3307 72.4018 86.8783 72.0247C86.8581 71.9891 86.8379 71.9535 86.8171 71.9178C86.2849 72.288 85.6514 72.5016 84.9944 72.5322Z" fill="white"/>
<path d="M85.0978 74.2171C85.0537 74.2208 85.0095 74.2232 84.9654 74.225C84.918 74.2268 84.8707 74.228 84.8234 74.228C84.0859 74.2272 83.3686 73.9977 82.7787 73.5739C82.1889 73.15 81.7583 72.5547 81.5514 71.877C81.5231 71.9259 81.4947 71.9742 81.4675 72.0231C81.7006 72.6993 82.1503 73.288 82.7528 73.7054C83.3552 74.1229 84.0797 74.3481 84.8234 74.3488C84.8707 74.3488 84.918 74.3482 84.9647 74.3458C85.0095 74.3446 85.0537 74.3422 85.0978 74.3392C85.9899 74.2723 86.8221 73.8834 87.4259 73.2512C87.4127 73.2065 87.3976 73.1624 87.3824 73.1177C86.7992 73.7547 85.9797 74.149 85.0978 74.2171Z" fill="white"/>
<path d="M73.6162 19.2044L73.684 17.9694L74.03 19.3424C75.2097 19.6827 76.5574 19.6696 76.5574 19.6696C76.5574 19.6696 76.6486 16.9941 75.5855 15.9533C74.5225 14.9125 73.5051 15.1542 72.7079 15.9005C71.9108 16.6469 71.6357 17.6154 72.6987 18.6562C72.9622 18.897 73.2745 19.0836 73.6162 19.2044Z" fill="#F0F0F0"/>
<path d="M73.8258 17.7736L73.7734 17.7223C73.1675 17.1229 72.7973 16.5593 72.6688 16.0387C72.6668 16.0312 72.6653 16.0236 72.6633 16.016L72.7002 16.0079L72.7357 16.0005C72.8683 16.5684 73.2982 17.1442 73.8265 17.6671C73.8434 17.6841 73.8605 17.7013 73.8781 17.7181C74.1038 17.9376 74.3453 18.1471 74.5889 18.3424C74.6076 18.3577 74.6268 18.373 74.6461 18.3882C74.9689 18.6444 75.2926 18.8749 75.5808 19.0687C75.6011 19.0825 75.6217 19.096 75.642 19.1093C76.1311 19.4353 76.5091 19.6494 76.5933 19.6962C76.6034 19.7021 76.6092 19.7052 76.6105 19.7059L76.5923 19.7364V19.7369L76.5738 19.7676C76.5725 19.7668 76.5532 19.7566 76.5183 19.7366C76.3872 19.6626 76.0346 19.4586 75.5944 19.1663C75.5746 19.153 75.554 19.1395 75.5337 19.1257C75.2997 18.9687 75.0433 18.7884 74.7838 18.5902C74.7186 18.5405 74.6549 18.4908 74.5927 18.4412C74.5732 18.4261 74.554 18.4109 74.5353 18.3956C74.272 18.1845 74.0355 17.9772 73.8258 17.7736Z" fill="white"/>
<path d="M75.5943 19.166C75.6097 19.1471 75.6254 19.1279 75.6419 19.109C75.6866 19.0576 75.7341 19.0084 75.784 18.9616C75.9967 18.7619 76.2534 18.6105 76.5354 18.5185C76.5327 18.4946 76.5301 18.4707 76.5275 18.4463C76.2289 18.5411 75.9569 18.6999 75.7321 18.9108C75.6788 18.9607 75.6283 19.0133 75.5808 19.0684C75.5645 19.0871 75.5488 19.1062 75.5336 19.1254C75.4075 19.2829 75.3071 19.4579 75.2358 19.6442C75.2615 19.6475 75.2867 19.6508 75.3113 19.6541C75.38 19.4789 75.4754 19.3145 75.5943 19.166Z" fill="white"/>
<path d="M74.5927 18.4412C74.61 18.4231 74.6278 18.4054 74.6461 18.3883C74.6514 18.3828 74.6572 18.3773 74.6628 18.3721C74.8936 18.1561 75.1754 17.9967 75.4844 17.9075C75.7934 17.8183 76.1204 17.8019 76.4374 17.8599C76.4327 17.8349 76.428 17.81 76.4228 17.7851C76.098 17.7302 75.7642 17.7503 75.4492 17.8435C75.1341 17.9368 74.8467 18.1006 74.6109 18.3213C74.6035 18.3283 74.5961 18.3352 74.5889 18.3424C74.5706 18.3601 74.5528 18.3777 74.5353 18.3956C74.2663 18.6747 74.0869 19.022 74.0186 19.3961C74.0423 19.4032 74.0661 19.4102 74.0902 19.417C74.155 19.0518 74.3296 18.7127 74.5927 18.4412Z" fill="white"/>
<path d="M73.8257 17.7736C73.8427 17.7547 73.8603 17.7363 73.878 17.7182C73.8972 17.6988 73.9165 17.6796 73.9364 17.661C74.2468 17.3711 74.647 17.1852 75.077 17.1312C75.507 17.0772 75.9436 17.158 76.3216 17.3615C76.3126 17.3298 76.3038 17.2983 76.2942 17.267C75.9058 17.0745 75.464 17.004 75.0314 17.0656C74.5988 17.1272 74.1976 17.3178 73.8846 17.6102C73.8647 17.6288 73.845 17.6477 73.8264 17.6671C73.8081 17.6853 73.7906 17.7037 73.7733 17.7223C73.4269 18.1016 73.2441 18.5927 73.2617 19.0962C73.2864 19.1097 73.3117 19.1223 73.3373 19.1351C73.309 18.6378 73.4842 18.1494 73.8257 17.7736Z" fill="white"/>
<path d="M24.6089 28.3821L24.6766 27.1471L25.0226 28.5201C26.2024 28.8604 27.5501 28.8474 27.5501 28.8474C27.5501 28.8474 27.6412 26.1719 26.5782 25.1311C25.5152 24.0903 24.4978 24.3319 23.7006 25.0783C22.9034 25.8246 22.6284 26.7931 23.6914 27.8339C23.9549 28.0747 24.2671 28.2613 24.6089 28.3821Z" fill="#F0F0F0"/>
<path d="M24.818 26.9508L24.7656 26.8995C24.1597 26.3002 23.7895 25.7366 23.661 25.216C23.659 25.2084 23.6575 25.2008 23.6555 25.1933L23.6923 25.1851L23.7278 25.1777C23.8605 25.7456 24.2904 26.3214 24.8187 26.8443C24.8355 26.8613 24.8527 26.8786 24.8703 26.8953C25.096 27.1148 25.3375 27.3244 25.5811 27.5196C25.5998 27.5349 25.619 27.5502 25.6383 27.5655C25.9611 27.8216 26.2848 28.0522 26.573 28.2459C26.5933 28.2597 26.6139 28.2733 26.6342 28.2865C27.1233 28.6125 27.5013 28.8266 27.5855 28.8735C27.5956 28.8794 27.6013 28.8824 27.6026 28.8832L27.5845 28.9136V28.9142L27.566 28.9449C27.5647 28.9441 27.5454 28.9338 27.5105 28.9139C27.3794 28.8399 27.0268 28.6359 26.5865 28.3435C26.5668 28.3303 26.5462 28.3167 26.5259 28.303C26.2919 28.146 26.0355 27.9656 25.776 27.7674C25.7107 27.7177 25.647 27.6681 25.5849 27.6184C25.5654 27.6034 25.5462 27.5881 25.5275 27.5728C25.2642 27.3618 25.0277 27.1544 24.818 26.9508Z" fill="white"/>
<path d="M26.5867 28.3438C26.6022 28.3248 26.6179 28.3057 26.6344 28.2867C26.6791 28.2353 26.7265 28.1861 26.7764 28.1393C26.9891 27.9397 27.2459 27.7882 27.5278 27.6962C27.5252 27.6723 27.5226 27.6484 27.52 27.624C27.2213 27.7188 26.9493 27.8777 26.7246 28.0885C26.6712 28.1385 26.6207 28.1911 26.5732 28.2461C26.557 28.2648 26.5413 28.284 26.5261 28.3032C26.3999 28.4607 26.2995 28.6356 26.2283 28.822C26.2539 28.8253 26.2791 28.8285 26.3037 28.8318C26.3724 28.6567 26.4678 28.4922 26.5867 28.3438Z" fill="white"/>
<path d="M25.5849 27.6185C25.6022 27.6003 25.62 27.5827 25.6383 27.5655C25.6436 27.56 25.6494 27.5546 25.655 27.5494C25.8857 27.3333 26.1676 27.1739 26.4766 27.0847C26.7856 26.9955 27.1125 26.9792 27.4296 27.0371C27.4249 27.0122 27.4202 26.9873 27.415 26.9623C27.0902 26.9075 26.7564 26.9275 26.4413 27.0208C26.1263 27.114 25.8389 27.2778 25.6031 27.4986C25.5957 27.5055 25.5883 27.5125 25.5811 27.5197C25.5628 27.5373 25.545 27.555 25.5275 27.5729C25.2584 27.8519 25.079 28.1993 25.0107 28.5734C25.0345 28.5804 25.0583 28.5875 25.0824 28.5942C25.1472 28.2291 25.3218 27.89 25.5849 27.6185Z" fill="white"/>
<path d="M24.8181 26.9509C24.8352 26.932 24.8527 26.9136 24.8705 26.8954C24.8896 26.876 24.909 26.8569 24.9289 26.8383C25.2393 26.5483 25.6394 26.3624 26.0694 26.3084C26.4994 26.2544 26.9361 26.3352 27.3141 26.5388C27.305 26.507 27.2962 26.4755 27.2866 26.4443C26.8982 26.2517 26.4564 26.1813 26.0238 26.2429C25.5913 26.3045 25.19 26.495 24.877 26.7875C24.8571 26.8061 24.8375 26.825 24.8189 26.8444C24.8005 26.8625 24.783 26.8809 24.7657 26.8996C24.4194 27.2788 24.2365 27.7699 24.2541 28.2734C24.2789 28.287 24.3042 28.2996 24.3297 28.3124C24.3014 27.815 24.4766 27.3266 24.8181 26.9509Z" fill="white"/>
<path d="M32.7915 12.7132L32.8592 11.4782L33.2052 12.8512C34.385 13.1915 35.7327 13.1784 35.7327 13.1784C35.7327 13.1784 35.8238 10.5029 34.7608 9.46212C33.6978 8.42131 32.6804 8.66295 31.8832 9.40933C31.086 10.1557 30.811 11.1242 31.874 12.165C32.1375 12.4058 32.4497 12.5923 32.7915 12.7132Z" fill="#F0F0F0"/>
<path d="M33.0011 11.2819L32.9487 11.2306C32.3428 10.6312 31.9726 10.0676 31.8441 9.54701C31.8421 9.53945 31.8406 9.5319 31.8386 9.52434L31.8754 9.5162L31.911 9.50879C32.0436 10.0767 32.4735 10.6525 33.0018 11.1754C33.0186 11.1924 33.0358 11.2096 33.0534 11.2264C33.2791 11.4459 33.5206 11.6554 33.7642 11.8507C33.7829 11.866 33.8021 11.8813 33.8214 11.8965C34.1442 12.1527 34.4679 12.3832 34.7561 12.577C34.7764 12.5908 34.797 12.6043 34.8173 12.6176C35.3064 12.9436 35.6844 13.1577 35.7686 13.2045C35.7787 13.2104 35.7845 13.2135 35.7858 13.2143L35.7676 13.2447V13.2452L35.7491 13.2759C35.7478 13.2751 35.7285 13.2649 35.6936 13.2449C35.5625 13.1709 35.2099 12.9669 34.7696 12.6746C34.7499 12.6613 34.7293 12.6478 34.709 12.634C34.475 12.477 34.2186 12.2967 33.9591 12.0985C33.8939 12.0488 33.8302 11.9991 33.768 11.9495C33.7485 11.9344 33.7293 11.9192 33.7106 11.9039C33.4473 11.6928 33.2108 11.4855 33.0011 11.2819Z" fill="white"/>
<path d="M34.7696 12.6748C34.785 12.6559 34.8007 12.6367 34.8172 12.6178C34.8619 12.5664 34.9094 12.5171 34.9593 12.4704C35.172 12.2707 35.4287 12.1193 35.7106 12.0273C35.708 12.0034 35.7054 11.9795 35.7028 11.9551C35.4042 12.0499 35.1321 12.2087 34.9074 12.4196C34.8541 12.4695 34.8036 12.5221 34.756 12.5772C34.7398 12.5959 34.7241 12.615 34.7089 12.6342C34.5828 12.7917 34.4824 12.9666 34.4111 13.153C34.4368 13.1563 34.462 13.1596 34.4866 13.1629C34.5553 12.9877 34.6507 12.8233 34.7696 12.6748Z" fill="white"/>
<path d="M33.7678 11.9495C33.7851 11.9314 33.8028 11.9137 33.8211 11.8966C33.8265 11.8911 33.8323 11.8856 33.8379 11.8804C34.0686 11.6644 34.3505 11.505 34.6595 11.4158C34.9685 11.3266 35.2954 11.3102 35.6124 11.3682C35.6077 11.3432 35.603 11.3183 35.5978 11.2934C35.273 11.2385 34.9393 11.2586 34.6242 11.3518C34.3091 11.4451 34.0218 11.6089 33.786 11.8296C33.7786 11.8366 33.7711 11.8435 33.764 11.8507C33.7457 11.8684 33.7279 11.886 33.7103 11.9039C33.4413 12.183 33.2619 12.5303 33.1936 12.9044C33.2174 12.9115 33.2412 12.9185 33.2652 12.9253C33.33 12.5601 33.5047 12.221 33.7678 11.9495Z" fill="white"/>
<path d="M33.001 11.2819C33.018 11.263 33.0356 11.2446 33.0533 11.2265C33.0725 11.2071 33.0918 11.1879 33.1117 11.1693C33.4221 10.8794 33.8223 10.6935 34.2523 10.6395C34.6823 10.5855 35.1189 10.6663 35.4969 10.8698C35.4879 10.8381 35.4791 10.8066 35.4694 10.7753C35.0811 10.5828 34.6393 10.5123 34.2067 10.5739C33.7741 10.6355 33.3728 10.8261 33.0598 11.1185C33.04 11.1371 33.0203 11.156 33.0017 11.1754C32.9834 11.1936 32.9659 11.212 32.9486 11.2306C32.6022 11.6099 32.4193 12.101 32.437 12.6045C32.4617 12.618 32.487 12.6306 32.5126 12.6434C32.4843 12.1461 32.6595 11.6577 33.001 11.2819Z" fill="white"/>
<path d="M14.1489 68.9047L11.3495 71.3722L13.5743 67.798C11.8215 64.7547 8.95475 62.1245 8.95475 62.1245C8.95475 62.1245 3.00732 67.5801 3.00732 71.8686C3.00732 76.1571 5.67006 77.6545 8.95475 77.6545C12.2394 77.6545 14.9021 76.1571 14.9021 71.8686C14.9021 70.9141 14.607 69.9018 14.1489 68.9047Z" fill="#F0F0F0"/>
<path d="M10.6295 71.5058V71.7172C10.6163 74.1743 10.1835 76.0914 9.33429 77.4414C9.32227 77.4613 9.30916 77.4801 9.29712 77.5L9.20204 77.4445L9.11132 77.3901C10.0535 75.9324 10.3868 73.8719 10.3988 71.7287C10.3999 71.6597 10.401 71.5895 10.3999 71.5194C10.3967 70.6121 10.3387 69.6944 10.2458 68.8028C10.2393 68.7337 10.2316 68.6636 10.224 68.5935C10.095 67.4173 9.9092 66.2934 9.71902 65.317C9.7059 65.248 9.6917 65.1789 9.67749 65.1109C9.3485 63.4596 9.01296 62.2634 8.93645 61.9987C8.92771 61.9662 8.92224 61.9485 8.92114 61.9443L9.02498 61.916L9.02607 61.915L9.131 61.8867C9.13209 61.8909 9.15067 61.9506 9.18127 62.0615C9.29822 62.4759 9.60207 63.6008 9.90045 65.0847C9.91357 65.1517 9.92778 65.2208 9.9409 65.2898C10.0961 66.082 10.248 66.9673 10.3683 67.8966C10.3989 68.1299 10.4262 68.3602 10.4502 68.5872C10.459 68.6574 10.4666 68.7275 10.4732 68.7965C10.5737 69.7603 10.6258 70.6634 10.6295 71.5058Z" fill="white"/>
<path d="M9.90038 65.0846C9.82715 65.094 9.75283 65.1034 9.67742 65.1108C9.47261 65.131 9.26686 65.1411 9.06098 65.1411C8.18355 65.1422 7.31703 64.9549 6.52528 64.5928C6.47937 64.6482 6.43347 64.7037 6.38647 64.7602C7.21937 65.1495 8.13415 65.3513 9.06098 65.3504C9.28076 65.3504 9.5004 65.3392 9.71895 65.3169C9.79327 65.3096 9.86759 65.3002 9.94082 65.2897C10.5453 65.2067 11.1331 65.0363 11.6841 64.7843C11.6371 64.7267 11.5912 64.6702 11.5464 64.6147C11.0249 64.8481 10.4702 65.0064 9.90038 65.0846Z" fill="white"/>
<path d="M10.4503 68.5875C10.3749 68.5916 10.2994 68.5937 10.224 68.5937C10.2011 68.5948 10.177 68.5948 10.1541 68.5948C9.20333 68.5948 8.26668 68.3747 7.42397 67.9532C6.58127 67.5318 5.8575 66.9215 5.31438 66.1743C5.27067 66.2361 5.22695 66.2978 5.18433 66.3606C5.75042 67.1166 6.49649 67.7325 7.36074 68.1575C8.22498 68.5824 9.18253 68.804 10.1541 68.8041C10.1847 68.8041 10.2153 68.8041 10.2459 68.803C10.3224 68.802 10.3978 68.7999 10.4732 68.7968C11.6402 68.7395 12.7653 68.3617 13.7139 67.7084C13.6789 67.6467 13.6439 67.5849 13.6079 67.5232C12.6859 68.1646 11.5885 68.5344 10.4503 68.5875Z" fill="white"/>
<path d="M10.6293 71.5057C10.5528 71.512 10.4763 71.5161 10.3998 71.5193C10.3178 71.5224 10.2358 71.5245 10.1539 71.5245C8.87631 71.5231 7.63361 71.1255 6.6118 70.3913C5.59 69.6571 4.84407 68.6257 4.4857 67.4517C4.43651 67.5364 4.38733 67.6201 4.34033 67.7049C4.74412 68.8763 5.52316 69.896 6.56679 70.6192C7.61041 71.3425 8.86554 71.7325 10.1539 71.7338C10.2358 71.7338 10.3178 71.7328 10.3987 71.7286C10.4763 71.7265 10.5528 71.7223 10.6293 71.7171C12.1747 71.6013 13.6163 70.9276 14.6624 69.8324C14.6394 69.7549 14.6132 69.6785 14.587 69.6011C13.5766 70.7045 12.157 71.3877 10.6293 71.5057Z" fill="white"/>
<path d="M86.0496 47.9228C90.1066 44.524 91.8961 40.1283 90.0468 38.1047C88.1975 36.0812 83.4095 37.196 79.3525 40.5949C75.2956 43.9937 73.506 48.3894 75.3554 50.413C77.2047 52.4365 81.9927 51.3217 86.0496 47.9228Z" fill="#E4E4E4"/>
<path d="M26.1049 50.4134C27.9543 48.3898 26.1647 43.9941 22.1077 40.5952C18.0508 37.1964 13.2628 36.0815 11.4135 38.1051C9.56413 40.1286 11.3537 44.5243 15.4107 47.9232C19.4676 51.322 24.2556 52.4369 26.1049 50.4134Z" fill="#E4E4E4"/>
<path d="M35.2411 77.5556C40.6319 77.5556 45.0019 75.3758 45.0019 72.687C45.0019 69.9981 40.6319 67.8184 35.2411 67.8184C29.8503 67.8184 25.4802 69.9981 25.4802 72.687C25.4802 75.3758 29.8503 77.5556 35.2411 77.5556Z" fill="#E4E4E4"/>
<path d="M66.2189 77.5556C71.6096 77.5556 75.9797 75.3758 75.9797 72.687C75.9797 69.9981 71.6096 67.8184 66.2189 67.8184C60.8281 67.8184 56.458 69.9981 56.458 72.687C56.458 75.3758 60.8281 77.5556 66.2189 77.5556Z" fill="#E4E4E4"/>
<path d="M50.7301 70.8407C37.5165 70.8407 26.7664 60.5481 26.7664 47.8967C26.7664 35.2453 37.5165 24.9526 50.7301 24.9526C63.9438 24.9526 74.6939 35.2453 74.6939 47.8967C74.6939 60.5481 63.9438 70.8407 50.7301 70.8407ZM50.7301 25.1765C37.6454 25.1765 27.0002 35.3687 27.0002 47.8967C27.0002 60.4246 37.6454 70.6169 50.7301 70.6169C63.8149 70.6169 74.4601 60.4246 74.4601 47.8967C74.4601 35.3687 63.8149 25.1765 50.7301 25.1765Z" fill="#3F3D56"/>
<path d="M44.8883 63.1785C40.0539 61.5859 35.9882 58.3664 33.4471 54.1189C30.906 49.8713 30.0625 44.8848 31.0735 40.0864C29.7323 42.6594 28.9805 45.4771 28.8684 48.3507C28.7564 51.2244 29.2867 54.0878 30.4238 56.7495C31.5609 59.4111 33.2786 61.8095 35.462 63.7841C37.6454 65.7588 40.2441 67.2642 43.0842 68.1997C45.9244 69.1351 48.9404 69.479 51.9306 69.2083C54.9207 68.9376 57.816 68.0585 60.4226 66.63C63.0293 65.2014 65.2873 63.2563 67.0454 60.9248C68.8035 58.5933 70.0212 55.9291 70.6171 53.1106C68.331 57.489 64.462 60.9234 59.7294 62.7753C54.9969 64.6272 49.7229 64.7705 44.8883 63.1785Z" fill="#F0F0F0"/>
<path d="M43.6722 46.0679C42.4591 46.0679 41.4722 44.8383 41.4722 43.3269C41.4722 41.8156 42.4591 40.5859 43.6722 40.5859C44.8853 40.5859 45.8722 41.8156 45.8722 43.3269C45.8722 44.8383 44.8853 46.0679 43.6722 46.0679Z" fill="#3F3D56"/>
<path d="M56.9983 46.0679C55.7853 46.0679 54.7983 44.8383 54.7983 43.3269C54.7983 41.8156 55.7853 40.5859 56.9983 40.5859C58.2114 40.5859 59.1983 41.8156 59.1983 43.3269C59.1983 44.8383 58.2114 46.0679 56.9983 46.0679Z" fill="#3F3D56"/>
<path d="M49.2106 4.02277C50.3727 4.02277 51.3147 3.37135 51.3147 2.56778C51.3147 1.76421 50.3727 1.11279 49.2106 1.11279C48.0485 1.11279 47.1064 1.76421 47.1064 2.56778C47.1064 3.37135 48.0485 4.02277 49.2106 4.02277Z" fill="#2F2E41"/>
<path d="M49.2104 1.77832C49.9206 1.77832 50.4963 1.38023 50.4963 0.889159C50.4963 0.39809 49.9206 0 49.2104 0C48.5003 0 47.9246 0.39809 47.9246 0.889159C47.9246 1.38023 48.5003 1.77832 49.2104 1.77832Z" fill="#2F2E41"/>
<path d="M47.6974 3.14948C46.9736 2.45649 46.7445 1.52217 47.1056 0.920898C47.0198 0.967711 46.9408 1.02518 46.8708 1.09182C46.2773 1.66002 46.4624 2.75845 47.2841 3.54519C48.1058 4.33196 49.253 4.5091 49.8465 3.94089C49.9161 3.87382 49.9761 3.79824 50.025 3.7161C49.397 4.06178 48.4212 3.84247 47.6974 3.14948Z" fill="#2F2E41"/>
<path d="M27.551 39.1627L26.812 37.9871L31.1963 34.6982L32.2871 36.4333L27.551 39.1627Z" fill="#FFB6B6"/>
<path d="M26.5494 40.1487L24.1663 36.358L24.2163 36.3292C24.625 36.0937 25.1147 36.0232 25.5776 36.1333C26.0406 36.2435 26.4389 36.5252 26.6849 36.9164L26.685 36.9165L28.1405 39.2317L26.5494 40.1487Z" fill="#2F2E41"/>
<path d="M73.7397 37.5958L74.4787 36.4202L70.0944 33.1313L69.0037 34.8664L73.7397 37.5958Z" fill="#FFB6B6"/>
<path d="M73.1504 37.6648L74.6059 35.3496L74.606 35.3495C74.852 34.9583 75.2503 34.6766 75.7132 34.5664C76.1761 34.4563 76.6658 34.5268 77.0745 34.7623L77.1246 34.7911L74.7415 38.5818L73.1504 37.6648Z" fill="#2F2E41"/>
<path d="M45.0863 21.9067L44.8072 22.974L37.2755 28.7469L29.1699 35.9995L30.0393 37.9351L49.3596 25.5544L71.141 36.3645L72.1142 34.2307L62.1745 27.8515L53.9544 22.4242L45.0863 21.9067Z" fill="#2F2E41"/>
<path d="M47.6226 10.4878L44.3672 11.5104L44.8073 22.8639C44.8073 22.8639 50.4688 26.1185 53.9545 22.4241V11.0682L52.0106 10.4878H47.6226Z" fill="#6C63FF"/>
<path d="M53.2322 11.8489L53.9547 11.0684C53.9547 11.0684 55.9636 11.7709 55.7961 13.8794C55.6285 15.9878 54.4479 22.6939 54.4479 22.6939L54.2258 27.0681H52.1287L52.9645 15.7558L53.2322 11.8489Z" fill="#6C63FF"/>
<path d="M45.2831 12.1849L44.5605 11.4043C44.5605 11.4043 42.5516 12.1069 42.7192 14.2153C42.8867 16.3238 44.0673 23.0298 44.0673 23.0298L44.2894 27.4041H46.3866L45.5507 16.0917L45.2831 12.1849Z" fill="#6C63FF"/>
<path d="M45.353 29.2055C46.0632 29.2055 46.6389 28.6542 46.6389 27.9743C46.6389 27.2944 46.0632 26.7432 45.353 26.7432C44.6428 26.7432 44.0671 27.2944 44.0671 27.9743C44.0671 28.6542 44.6428 29.2055 45.353 29.2055Z" fill="#FFB6B6"/>
<path d="M53.185 29.2055C53.8952 29.2055 54.4709 28.6542 54.4709 27.9743C54.4709 27.2944 53.8952 26.7432 53.185 26.7432C52.4749 26.7432 51.8992 27.2944 51.8992 27.9743C51.8992 28.6542 52.4749 29.2055 53.185 29.2055Z" fill="#FFB6B6"/>
<path d="M49.1564 9.55561C51.1232 9.55561 52.7176 8.02907 52.7176 6.14597C52.7176 4.26288 51.1232 2.73633 49.1564 2.73633C47.1896 2.73633 45.5952 4.26288 45.5952 6.14597C45.5952 8.02907 47.1896 9.55561 49.1564 9.55561Z" fill="#2F2E41"/>
<path d="M49.2634 9.66826C50.8491 9.66826 52.1345 8.43752 52.1345 6.91933C52.1345 5.40114 50.8491 4.17041 49.2634 4.17041C47.6778 4.17041 46.3923 5.40114 46.3923 6.91933C46.3923 8.43752 47.6778 9.66826 49.2634 9.66826Z" fill="#FFB6B6"/>
<path d="M46.2466 5.1903C46.9027 5.62325 47.6814 5.85367 48.4782 5.85062C48.194 6.03932 47.8704 6.16678 47.5298 6.22422C48.5892 6.4418 49.6841 6.44769 50.7461 6.24152C50.9821 6.20528 51.2099 6.13039 51.4193 6.02011C51.5237 5.96429 51.6147 5.88806 51.6863 5.79638C51.7579 5.7047 51.8085 5.59961 51.8349 5.48796C51.9055 5.10199 51.5914 4.75133 51.265 4.51501C50.7652 4.1587 50.1889 3.91321 49.5778 3.7963C48.9668 3.6794 48.3363 3.69399 47.7318 3.83903C47.3372 3.93671 46.9418 4.10174 46.6854 4.40521C46.4291 4.70867 46.3531 5.17652 46.5974 5.48901L46.2466 5.1903Z" fill="#2F2E41"/>
<path d="M96.9498 77.7795H1.09468C1.06368 77.7795 1.03394 77.7677 1.01202 77.7467C0.990099 77.7257 0.977783 77.6973 0.977783 77.6676C0.977783 77.6379 0.990099 77.6094 1.01202 77.5884C1.03394 77.5675 1.06368 77.5557 1.09468 77.5557H96.9498C96.9808 77.5557 97.0105 77.5675 97.0324 77.5884C97.0544 77.6094 97.0667 77.6379 97.0667 77.6676C97.0667 77.6973 97.0544 77.7257 97.0324 77.7467C97.0105 77.7677 96.9808 77.7795 96.9498 77.7795Z" fill="#3F3D56"/>
<path d="M47.1064 56.8501C47.1064 57.6812 47.4513 58.4783 48.0651 59.066C48.6789 59.6538 49.5115 59.9839 50.3795 59.9839C51.2476 59.9839 52.0802 59.6538 52.694 59.066C53.3078 58.4783 53.6526 57.6812 53.6526 56.8501H47.1064Z" fill="#3F3D56"/>
<path d="M62.4339 52.9328C63.9834 52.9328 65.2395 51.7302 65.2395 50.2467C65.2395 48.7632 63.9834 47.5605 62.4339 47.5605C60.8845 47.5605 59.6284 48.7632 59.6284 50.2467C59.6284 51.7302 60.8845 52.9328 62.4339 52.9328Z" fill="#F0F0F0"/>
<path d="M38.2367 52.9328C39.7861 52.9328 41.0422 51.7302 41.0422 50.2467C41.0422 48.7632 39.7861 47.5605 38.2367 47.5605C36.6872 47.5605 35.4312 48.7632 35.4312 50.2467C35.4312 51.7302 36.6872 52.9328 38.2367 52.9328Z" fill="#F0F0F0"/>
</g>
<defs>
<clipPath id="clip0_2459_3764">
<rect width="96.0889" height="77.7797" fill="white" transform="translate(0.977783)"/>
</clipPath>
</defs>
</svg>
