<svg width="81" height="62" viewBox="0 0 81 62" fill="none" xmlns="http://www.w3.org/2000/svg">
<g clip-path="url(#clip0_2459_1489)">
<path d="M70.3538 59.7563V53.6123C70.3538 53.6123 73.0821 57.9682 70.3538 59.7563Z" fill="#F1F1F1"/>
<path d="M70.522 59.7551L65.3647 55.6001C65.3647 55.6001 70.8661 56.782 70.522 59.7551Z" fill="#F1F1F1"/>
<path d="M10.5917 59.7563V53.6123C10.5917 53.6123 7.86341 57.9682 10.5917 59.7563Z" fill="#F1F1F1"/>
<path d="M10.4232 59.7551L15.5805 55.6001C15.5805 55.6001 10.0791 56.782 10.4232 59.7551Z" fill="#F1F1F1"/>
<path d="M57.4607 14.1879H57.0869V5.20123C57.0869 4.51819 56.9337 3.84185 56.6358 3.2108C56.338 2.57976 55.9014 2.00638 55.3511 1.52341C54.8008 1.04043 54.1474 0.657308 53.4284 0.395921C52.7093 0.134535 51.9387 5.57688e-07 51.1604 0H29.4657C28.6874 -1.44995e-06 27.9167 0.134531 27.1977 0.395915C26.4786 0.6573 25.8253 1.04042 25.2749 1.52339C24.7246 2.00637 24.288 2.57975 23.9902 3.21079C23.6924 3.84183 23.5391 4.51818 23.5391 5.20121V54.5026C23.5391 55.8821 24.1635 57.205 25.2749 58.1804C26.3864 59.1559 27.8938 59.7038 29.4657 59.7038H51.1603C52.7322 59.7038 54.2396 59.1559 55.3511 58.1805C56.4625 57.205 57.0869 55.8821 57.0869 54.5026V20.5847H57.4607V14.1879Z" fill="#3F3D56"/>
<path d="M51.3994 1.35303H48.5675C48.6977 1.63324 48.7475 1.93725 48.7123 2.23828C48.6771 2.53932 48.5581 2.82815 48.3657 3.07931C48.1734 3.33048 47.9136 3.53628 47.6093 3.67859C47.305 3.8209 46.9655 3.89534 46.6207 3.89536H34.1921C33.8472 3.89534 33.5077 3.8209 33.2034 3.67859C32.8991 3.53628 32.6393 3.33048 32.447 3.07931C32.2546 2.82815 32.1356 2.53932 32.1004 2.23828C32.0653 1.93725 32.115 1.63323 32.2452 1.35303H29.6002C28.4264 1.35303 27.3007 1.76225 26.4706 2.49068C25.6406 3.21911 25.1743 4.20708 25.1743 5.23724V54.4663C25.1743 54.9764 25.2888 55.4815 25.5112 55.9527C25.7336 56.424 26.0596 56.8522 26.4706 57.2129C26.8816 57.5735 27.3695 57.8596 27.9065 58.0549C28.4435 58.2501 29.019 58.3505 29.6002 58.3505H51.3994C51.9806 58.3505 52.5561 58.25 53.0931 58.0549C53.6301 57.8596 54.118 57.5735 54.529 57.2129C54.94 56.8522 55.266 56.424 55.4884 55.9527C55.7108 55.4815 55.8253 54.9764 55.8253 54.4663V5.23724C55.8253 4.72716 55.7108 4.22207 55.4884 3.75082C55.266 3.27956 54.94 2.85137 54.529 2.49069C54.118 2.13 53.6301 1.8439 53.0931 1.6487C52.5561 1.4535 51.9806 1.35303 51.3994 1.35303Z" fill="white"/>
<path d="M50.8533 57.5053H30.1463C27.767 57.5053 25.8313 55.989 25.8313 54.1253V51.6783C25.8313 50.1929 27.3729 48.9844 29.2677 48.9844H51.7319C53.6268 48.9844 55.1683 50.1929 55.1683 51.6783V54.1253C55.1683 55.989 53.2326 57.5053 50.8533 57.5053Z" fill="#E5E5E5"/>
<path d="M32.3231 16.3788H27.7042C27.6214 16.3787 27.5421 16.3498 27.4836 16.2984C27.4251 16.2471 27.3922 16.1775 27.3921 16.1049V12.0512C27.3922 11.9786 27.4251 11.909 27.4836 11.8577C27.5421 11.8063 27.6214 11.7774 27.7042 11.7773H32.3231C32.4059 11.7774 32.4852 11.8063 32.5437 11.8577C32.6022 11.909 32.6351 11.9786 32.6352 12.0512V16.1049C32.6351 16.1775 32.6022 16.2471 32.5437 16.2984C32.4852 16.3498 32.4059 16.3787 32.3231 16.3788Z" fill="#6C63FF"/>
<path d="M39.3139 16.3788H34.6949C34.6122 16.3787 34.5328 16.3498 34.4743 16.2984C34.4158 16.2471 34.3829 16.1775 34.3828 16.1049V12.0512C34.3829 11.9786 34.4158 11.909 34.4743 11.8577C34.5328 11.8063 34.6122 11.7774 34.6949 11.7773H39.3139C39.3966 11.7774 39.4759 11.8063 39.5344 11.8577C39.5929 11.909 39.6258 11.9786 39.6259 12.0512V16.1049C39.6258 16.1775 39.5929 16.2471 39.5344 16.2984C39.4759 16.3498 39.3966 16.3787 39.3139 16.3788Z" fill="#E5E5E5"/>
<path d="M46.3048 16.3788H41.6859C41.6031 16.3787 41.5238 16.3498 41.4653 16.2984C41.4068 16.2471 41.3739 16.1775 41.3738 16.1049V12.0512C41.3739 11.9786 41.4068 11.909 41.4653 11.8577C41.5238 11.8063 41.6031 11.7774 41.6859 11.7773H46.3048C46.3876 11.7774 46.4669 11.8063 46.5254 11.8577C46.5839 11.909 46.6168 11.9786 46.6169 12.0512V16.1049C46.6168 16.1775 46.5839 16.2471 46.5254 16.2984C46.4669 16.3498 46.3876 16.3787 46.3048 16.3788Z" fill="#E5E5E5"/>
<path d="M53.2958 16.3788H48.6768C48.5941 16.3787 48.5148 16.3498 48.4563 16.2984C48.3978 16.2471 48.3648 16.1775 48.3647 16.1049V12.0512C48.3648 11.9786 48.3978 11.909 48.4563 11.8577C48.5148 11.8063 48.5941 11.7774 48.6768 11.7773H53.2958C53.3785 11.7774 53.4579 11.8063 53.5164 11.8577C53.5749 11.909 53.6078 11.9786 53.6079 12.0512V16.1049C53.6078 16.1775 53.5749 16.2471 53.5164 16.2984C53.4579 16.3498 53.3785 16.3787 53.2958 16.3788Z" fill="#E5E5E5"/>
<path d="M32.3068 23.8836H27.6878C27.6051 23.8836 27.5258 23.8547 27.4672 23.8033C27.4087 23.752 27.3758 23.6824 27.3757 23.6097V19.5561C27.3758 19.4835 27.4087 19.4139 27.4672 19.3625C27.5258 19.3112 27.6051 19.2823 27.6878 19.2822H32.3068C32.3895 19.2823 32.4688 19.3112 32.5274 19.3625C32.5859 19.4139 32.6188 19.4835 32.6189 19.5561V23.6097C32.6188 23.6824 32.5859 23.752 32.5274 23.8033C32.4688 23.8547 32.3895 23.8836 32.3068 23.8836Z" fill="#E5E5E5"/>
<path d="M39.2975 23.8836H34.6785C34.5958 23.8836 34.5165 23.8547 34.458 23.8033C34.3995 23.752 34.3666 23.6824 34.3665 23.6097V19.5561C34.3666 19.4835 34.3995 19.4139 34.458 19.3625C34.5165 19.3112 34.5958 19.2823 34.6785 19.2822H39.2975C39.3802 19.2823 39.4596 19.3112 39.5181 19.3625C39.5766 19.4139 39.6095 19.4835 39.6096 19.5561V23.6097C39.6095 23.6824 39.5766 23.752 39.5181 23.8033C39.4596 23.8547 39.3802 23.8836 39.2975 23.8836Z" fill="#E5E5E5"/>
<path d="M46.2885 23.8836H41.6695C41.5868 23.8836 41.5074 23.8547 41.4489 23.8033C41.3904 23.752 41.3575 23.6824 41.3574 23.6097V19.5561C41.3575 19.4835 41.3904 19.4139 41.4489 19.3625C41.5074 19.3112 41.5868 19.2823 41.6695 19.2822H46.2885C46.3712 19.2823 46.4505 19.3112 46.509 19.3625C46.5675 19.4139 46.6005 19.4835 46.6006 19.5561V23.6097C46.6005 23.6824 46.5675 23.752 46.509 23.8033C46.4505 23.8547 46.3712 23.8836 46.2885 23.8836Z" fill="#6C63FF"/>
<path d="M53.2792 23.8836H48.6602C48.5775 23.8836 48.4982 23.8547 48.4397 23.8033C48.3812 23.752 48.3482 23.6824 48.3481 23.6097V19.5561C48.3482 19.4835 48.3812 19.4139 48.4397 19.3625C48.4982 19.3112 48.5775 19.2823 48.6602 19.2822H53.2792C53.3619 19.2823 53.4413 19.3112 53.4998 19.3625C53.5583 19.4139 53.5912 19.4835 53.5913 19.5561V23.6097C53.5912 23.6824 53.5583 23.752 53.4998 23.8033C53.4413 23.8547 53.3619 23.8836 53.2792 23.8836Z" fill="#6C63FF"/>
<path d="M32.2902 31.388H27.6712C27.5885 31.388 27.5092 31.3591 27.4506 31.3077C27.3921 31.2564 27.3592 31.1868 27.3591 31.1141V27.0605C27.3592 26.9879 27.3921 26.9183 27.4506 26.8669C27.5092 26.8156 27.5885 26.7867 27.6712 26.7866H32.2902C32.3729 26.7867 32.4522 26.8156 32.5108 26.8669C32.5693 26.9183 32.6022 26.9879 32.6023 27.0605V31.1141C32.6022 31.1868 32.5693 31.2564 32.5108 31.3077C32.4522 31.3591 32.3729 31.388 32.2902 31.388Z" fill="#E5E5E5"/>
<path d="M39.2809 31.388H34.6619C34.5792 31.388 34.4999 31.3591 34.4414 31.3077C34.3829 31.2564 34.35 31.1868 34.3499 31.1141V27.0605C34.35 26.9879 34.3829 26.9183 34.4414 26.8669C34.4999 26.8156 34.5792 26.7867 34.6619 26.7866H39.2809C39.3636 26.7867 39.443 26.8156 39.5015 26.8669C39.56 26.9183 39.5929 26.9879 39.593 27.0605V31.1141C39.5929 31.1868 39.56 31.2564 39.5015 31.3077C39.443 31.3591 39.3636 31.388 39.2809 31.388Z" fill="#E5E5E5"/>
<path d="M46.2716 31.388H41.6527C41.5699 31.388 41.4906 31.3591 41.4321 31.3077C41.3736 31.2564 41.3407 31.1868 41.3406 31.1141V27.0605C41.3407 26.9879 41.3736 26.9183 41.4321 26.8669C41.4906 26.8156 41.5699 26.7867 41.6527 26.7866H46.2716C46.3544 26.7867 46.4337 26.8156 46.4922 26.8669C46.5507 26.9183 46.5836 26.9879 46.5837 27.0605V31.1141C46.5836 31.1868 46.5507 31.2564 46.4922 31.3077C46.4337 31.3591 46.3544 31.388 46.2716 31.388Z" fill="#E5E5E5"/>
<path d="M53.2628 31.388H48.6439C48.5611 31.388 48.4818 31.3591 48.4233 31.3077C48.3648 31.2564 48.3319 31.1868 48.3318 31.1141V27.0605C48.3319 26.9879 48.3648 26.9183 48.4233 26.8669C48.4818 26.8156 48.5611 26.7867 48.6439 26.7866H53.2628C53.3456 26.7867 53.4249 26.8156 53.4834 26.8669C53.5419 26.9183 53.5748 26.9879 53.5749 27.0605V31.1141C53.5748 31.1868 53.5419 31.2564 53.4834 31.3077C53.4249 31.3591 53.3456 31.388 53.2628 31.388Z" fill="#E5E5E5"/>
<path d="M32.2736 38.8929H27.6546C27.5719 38.8928 27.4926 38.8639 27.434 38.8126C27.3755 38.7613 27.3426 38.6916 27.3425 38.619V34.5654C27.3426 34.4928 27.3755 34.4232 27.434 34.3718C27.4926 34.3205 27.5719 34.2916 27.6546 34.2915H32.2736C32.3563 34.2916 32.4356 34.3205 32.4942 34.3718C32.5527 34.4232 32.5856 34.4928 32.5857 34.5654V38.619C32.5856 38.6916 32.5527 38.7613 32.4942 38.8126C32.4356 38.8639 32.3563 38.8928 32.2736 38.8929Z" fill="#E5E5E5"/>
<path d="M39.2645 38.8929H34.6456C34.5628 38.8928 34.4835 38.8639 34.425 38.8126C34.3665 38.7613 34.3336 38.6916 34.3335 38.619V34.5654C34.3336 34.4928 34.3665 34.4232 34.425 34.3718C34.4835 34.3205 34.5628 34.2916 34.6456 34.2915H39.2645C39.3473 34.2916 39.4266 34.3205 39.4851 34.3718C39.5436 34.4232 39.5765 34.4928 39.5766 34.5654V38.619C39.5765 38.6916 39.5436 38.7613 39.4851 38.8126C39.4266 38.8639 39.3473 38.8928 39.2645 38.8929Z" fill="#E5E5E5"/>
<path d="M46.2553 38.8929H41.6363C41.5536 38.8928 41.4742 38.8639 41.4157 38.8126C41.3572 38.7613 41.3243 38.6916 41.3242 38.619V34.5654C41.3243 34.4928 41.3572 34.4232 41.4157 34.3718C41.4742 34.3205 41.5536 34.2916 41.6363 34.2915H46.2553C46.338 34.2916 46.4173 34.3205 46.4758 34.3718C46.5343 34.4232 46.5673 34.4928 46.5674 34.5654V38.619C46.5673 38.6916 46.5343 38.7613 46.4758 38.8126C46.4173 38.8639 46.338 38.8928 46.2553 38.8929Z" fill="#E5E5E5"/>
<path d="M53.246 38.8929H48.627C48.5443 38.8928 48.465 38.8639 48.4065 38.8126C48.348 38.7613 48.315 38.6916 48.3149 38.619V34.5654C48.315 34.4928 48.348 34.4232 48.4065 34.3718C48.465 34.3205 48.5443 34.2916 48.627 34.2915H53.246C53.3287 34.2916 53.4081 34.3205 53.4666 34.3718C53.5251 34.4232 53.558 34.4928 53.5581 34.5654V38.619C53.558 38.6916 53.5251 38.7613 53.4666 38.8126C53.4081 38.8639 53.3287 38.8928 53.246 38.8929Z" fill="#E5E5E5"/>
<path d="M32.3231 55.6551H27.7042C27.6214 55.655 27.5421 55.6262 27.4836 55.5748C27.4251 55.5235 27.3922 55.4538 27.3921 55.3812V51.3276C27.3922 51.255 27.4251 51.1854 27.4836 51.134C27.5421 51.0827 27.6214 51.0538 27.7042 51.0537H32.3231C32.4059 51.0538 32.4852 51.0827 32.5437 51.134C32.6022 51.1854 32.6351 51.255 32.6352 51.3276V55.3812C32.6351 55.4538 32.6022 55.5235 32.5437 55.5748C32.4852 55.6262 32.4059 55.655 32.3231 55.6551Z" fill="white"/>
<path d="M39.3139 55.6551H34.6949C34.6122 55.655 34.5328 55.6262 34.4743 55.5748C34.4158 55.5235 34.3829 55.4538 34.3828 55.3812V51.3276C34.3829 51.255 34.4158 51.1854 34.4743 51.134C34.5328 51.0827 34.6122 51.0538 34.6949 51.0537H39.3139C39.3966 51.0538 39.4759 51.0827 39.5344 51.134C39.5929 51.1854 39.6258 51.255 39.6259 51.3276V55.3812C39.6258 55.4538 39.5929 55.5235 39.5344 55.5748C39.4759 55.6262 39.3966 55.655 39.3139 55.6551Z" fill="white"/>
<path d="M46.3048 55.6551H41.6859C41.6031 55.655 41.5238 55.6262 41.4653 55.5748C41.4068 55.5235 41.3739 55.4538 41.3738 55.3812V51.3276C41.3739 51.255 41.4068 51.1854 41.4653 51.134C41.5238 51.0827 41.6031 51.0538 41.6859 51.0537H46.3048C46.3876 51.0538 46.4669 51.0827 46.5254 51.134C46.5839 51.1854 46.6168 51.255 46.6169 51.3276V55.3812C46.6168 55.4538 46.5839 55.5235 46.5254 55.5748C46.4669 55.6262 46.3876 55.655 46.3048 55.6551Z" fill="white"/>
<path d="M53.2958 55.6551H48.6768C48.5941 55.655 48.5148 55.6262 48.4563 55.5748C48.3978 55.5235 48.3648 55.4538 48.3647 55.3812V51.3276C48.3648 51.255 48.3978 51.1854 48.4563 51.134C48.5148 51.0827 48.5941 51.0538 48.6768 51.0537H53.2958C53.3785 51.0538 53.4579 51.0827 53.5164 51.134C53.5749 51.1854 53.6078 51.255 53.6079 51.3276V55.3812C53.6078 55.4538 53.5749 55.5235 53.5164 55.5748C53.4579 55.6262 53.3785 55.655 53.2958 55.6551Z" fill="white"/>
<path d="M38.2362 47.1097C38.581 47.1097 38.8604 46.8645 38.8604 46.5619C38.8604 46.2594 38.581 46.0142 38.2362 46.0142C37.8915 46.0142 37.6121 46.2594 37.6121 46.5619C37.6121 46.8645 37.8915 47.1097 38.2362 47.1097Z" fill="#E5E5E5"/>
<path d="M40.4833 47.1097C40.828 47.1097 41.1075 46.8645 41.1075 46.5619C41.1075 46.2594 40.828 46.0142 40.4833 46.0142C40.1386 46.0142 39.8591 46.2594 39.8591 46.5619C39.8591 46.8645 40.1386 47.1097 40.4833 47.1097Z" fill="#E5E5E5"/>
<path d="M42.7306 47.1097C43.0754 47.1097 43.3548 46.8645 43.3548 46.5619C43.3548 46.2594 43.0754 46.0142 42.7306 46.0142C42.3859 46.0142 42.1064 46.2594 42.1064 46.5619C42.1064 46.8645 42.3859 47.1097 42.7306 47.1097Z" fill="#E5E5E5"/>
<path d="M80.6143 59.7924H0.385596C0.359929 59.7924 0.335313 59.7835 0.317164 59.7676C0.299014 59.7516 0.288818 59.73 0.288818 59.7075C0.288818 59.685 0.299014 59.6634 0.317164 59.6474C0.335313 59.6315 0.359929 59.6226 0.385596 59.6226H80.6143C80.6399 59.6226 80.6645 59.6315 80.6827 59.6474C80.7008 59.6634 80.711 59.685 80.711 59.7075C80.711 59.73 80.7008 59.7516 80.6827 59.7676C80.6645 59.7835 80.6399 59.7924 80.6143 59.7924Z" fill="#CBCBCB"/>
<path d="M31.8736 43.0698C32.0042 42.9552 32.1045 42.8169 32.1676 42.6647C32.2307 42.5124 32.255 42.3498 32.2388 42.1884C32.2225 42.027 32.1662 41.8707 32.0737 41.7305C31.9811 41.5903 31.8547 41.4696 31.7033 41.3769L32.9223 37.5864L30.6998 38.2067L29.883 41.7111C29.7224 41.9447 29.665 42.2218 29.7217 42.4901C29.7785 42.7583 29.9453 42.9989 30.1907 43.1664C30.436 43.3339 30.7429 43.4165 31.053 43.3987C31.3632 43.3809 31.6552 43.2639 31.8736 43.0698Z" fill="#FFB7B7"/>
<path d="M32.5055 40.7462C32.4658 40.7528 32.4254 40.7558 32.385 40.7551L30.253 40.7176C30.1728 40.7162 30.0938 40.6998 30.0214 40.6695C29.9489 40.6392 29.8846 40.5958 29.8328 40.542C29.781 40.4882 29.7428 40.4254 29.7208 40.3576C29.6989 40.2899 29.6936 40.2188 29.7053 40.1492L31.8681 27.3251C31.9326 26.9542 32.1462 26.6157 32.4702 26.3709C32.7943 26.1261 33.2074 25.9911 33.6349 25.9902C33.9049 25.9908 34.1712 26.0452 34.4137 26.1494C34.6562 26.2535 34.8686 26.4047 35.0348 26.5914C35.201 26.7781 35.3166 26.9955 35.3731 27.2272C35.4295 27.4589 35.4252 27.6988 35.3605 27.9288L33.8275 33.3778L32.9581 40.3135C32.9455 40.4187 32.8947 40.5175 32.8132 40.5954C32.7317 40.6733 32.6238 40.7262 32.5055 40.7462Z" fill="#3F3D56"/>
<path d="M33.3972 60.9904H34.5837L35.1482 56.9741L33.397 56.9742L33.3972 60.9904Z" fill="#FFB7B7"/>
<path d="M33.0942 60.6505L35.4308 60.6504H35.4309C35.8258 60.6504 36.2046 60.7881 36.4838 61.0332C36.7631 61.2782 36.92 61.6106 36.92 61.9572V61.9997L33.0943 61.9998L33.0942 60.6505Z" fill="#2F2E41"/>
<path d="M38.4563 60.6524L39.6353 60.7684L40.7064 56.8324L38.9661 56.6611L38.4563 60.6524Z" fill="#FFB7B7"/>
<path d="M38.1986 60.2852L40.5207 60.5136L40.5208 60.5136C40.9132 60.5523 41.2721 60.7262 41.5185 60.997C41.7649 61.2679 41.8786 61.6135 41.8346 61.958L41.8292 62.0002L38.0273 61.6261L38.1986 60.2852Z" fill="#2F2E41"/>
<path d="M32.2833 38.6406C32.2833 38.6406 30.6566 41.8008 32.0931 43.8535L32.9489 59.8351H34.9138L36.82 46.9253L40.2072 50.7473L38.1435 59.6676L40.5467 59.786L43.8847 50.7473C43.8847 50.7473 41.3203 40.7806 40.4734 40.5406L39.9169 38.2622L32.2833 38.6406Z" fill="#2F2E41"/>
<path d="M31.5597 41.4152C31.5597 41.4152 30.0943 42.8911 33.9654 43.4007C37.8365 43.9103 41.9011 43.1459 41.9979 42.1267C42.0947 41.1075 31.5597 41.4152 31.5597 41.4152Z" fill="#CBCBCB"/>
<path d="M50.9649 23.1064C50.9589 23.2505 50.917 23.3916 50.8421 23.52C50.7672 23.6483 50.6612 23.7606 50.5315 23.8491C50.4017 23.9376 50.2515 24 50.0913 24.032C49.9311 24.064 49.7649 24.0648 49.6043 24.0343L48.1411 25.8862L46.6418 25.3803L48.7501 22.7905C48.8264 22.5572 48.9975 22.3565 49.231 22.2265C49.4646 22.0965 49.7444 22.0462 50.0174 22.0851C50.2904 22.124 50.5376 22.2495 50.7123 22.4378C50.8869 22.626 50.9768 22.8639 50.9649 23.1064Z" fill="#FFB7B7"/>
<path d="M38.5898 25.4889L36.5209 24.6675L33.8702 24.8338C33.8702 24.8338 30.6746 28.1127 31.9327 31.2552L31.1584 42.2116C36.0941 43.4006 38.3377 41.1705 41.9008 42.1266L40.8002 29.9499L38.5898 25.4889Z" fill="#3F3D56"/>
<path d="M37.2073 26.2865L38.59 25.4887C38.59 25.4887 40.5107 25.2339 41.2784 25.8876C41.2784 25.8876 43.8843 26.079 44.5137 26.6499L45.2066 26.787L47.5087 24.1709L48.9174 24.8426L46.885 29.6838L40.8004 29.9497L37.2073 26.2865Z" fill="#3F3D56"/>
<path d="M37.6842 23.7462C39.2668 22.987 39.8485 21.2456 38.9833 19.8567C38.1182 18.4678 36.1339 17.9573 34.5513 18.7166C32.9687 19.4758 32.3871 21.2172 33.2522 22.6061C34.1174 23.995 36.1016 24.5055 37.6842 23.7462Z" fill="#FFB7B7"/>
<path d="M33.2932 18.9906C33.8761 18.0704 34.6046 17.4747 35.8039 17.4962C37.0033 17.5177 38.0407 17.4761 38.5804 18.4163C38.723 18.182 38.7944 17.9193 38.7877 17.6537C38.9507 17.7465 39.0791 17.8792 39.1572 18.0353C39.2352 18.1914 39.2595 18.3642 39.2271 18.5323C39.332 18.4783 39.4199 18.4021 39.4826 18.3106C39.5453 18.2192 39.5808 18.1153 39.5859 18.0087C39.9862 18.1256 40.0902 18.6206 39.8877 18.9454C39.6852 19.2701 39.2879 19.4579 38.9068 19.6167C38.5257 19.7754 38.7017 20.6151 38.4528 20.914C38.2791 21.1227 38.1997 21.3783 38.0827 21.6154C38.0778 21.6248 38.0694 21.6324 38.059 21.6371C37.7906 21.7685 37.6213 22.0031 37.6686 22.2695C37.6742 22.2895 37.6729 22.3105 37.6648 22.3298C37.3251 22.8914 36.9584 23.4791 36.3427 23.8142C35.8486 24.0761 35.2567 24.1563 34.6956 24.0376C34.0662 23.9056 33.5221 23.5394 33.1298 23.0877C32.7374 22.6361 32.485 22.1023 32.2954 21.5593C32.1272 21.0776 32.0048 20.5626 32.1382 20.0726C32.2716 19.5825 32.7234 19.1288 33.2959 19.0909" fill="#2F2E41"/>
</g>
<defs>
<clipPath id="clip0_2459_1489">
<rect width="80.4222" height="62" fill="white" transform="translate(0.288818)"/>
</clipPath>
</defs>
</svg>
